<?xml version="1.0" encoding="utf-8"?>
<!-- Generator: Adobe Illustrator 22.0.0, SVG Export Plug-In . SVG Version: 6.00 Build 0)  -->
<svg version="1.1" id="Layer_1" xmlns="http://www.w3.org/2000/svg" xmlns:xlink="http://www.w3.org/1999/xlink" x="0px" y="0px"
	 viewBox="0 0 474 84" style="enable-background:new 0 0 474 84;" xml:space="preserve">
<g>
	<polygon points="51.8,41.1 33.8,41.1 33.8,25.2 25.8,25.2 25.8,64.6 33.8,64.6 33.8,48.6 51.8,48.6 51.8,64.6 59.8,64.6 59.8,25.2 
		51.8,25.2 	"/>
	<path d="M96.9,47.7c0,6.4-3.2,9.8-8.9,9.8c-5.8,0-9-3.5-9-10.1V25.2h-8v22.5c0,11.1,6.2,17.4,16.9,17.4c10.8,0,17-6.5,17-17.8V25.2
		h-8V47.7z"/>
	<polygon points="189.2,52.3 180.2,25.2 173.7,25.2 164.8,52.3 156.1,25.2 147.6,25.2 161.3,64.6 167.9,64.6 176.9,38.7 185.8,64.6 
		192.5,64.6 206.2,25.2 197.9,25.2 	"/>
	<polygon points="220.5,47.6 235,47.6 235,40.5 220.5,40.5 220.5,32.4 241.6,32.4 241.6,25.2 212.6,25.2 212.6,64.6 242.4,64.6 
		242.4,57.4 220.5,57.4 	"/>
	<rect x="251.9" y="25.2" width="7.9" height="39.3"/>
	<path d="M133.2,25.2h-7l-17.3,39.4h8.2l3.3-7.6h0l0.2-0.6h18l3.5,8.2h8.4l-17.2-39.1L133.2,25.2z M135.7,49.3h-12.1l0.4-0.9h0
		l5.6-13.2l5.7,13.2h0L135.7,49.3z"/>
	<path d="M310.8,28.3c-1.1-1-2.5-1.7-4.1-2.2c-1.6-0.5-3.3-0.7-5-0.7h-13.1v39.3h6.3V48.9h6.6c1.7,0,3.4-0.2,5-0.7
		c1.6-0.5,2.9-1.2,4.1-2.2c1.2-1,2.1-2.2,2.8-3.7c0.7-1.5,1-3.3,1-5.3c0-1.9-0.3-3.6-1-5.1C312.8,30.5,311.9,29.2,310.8,28.3z
		 M307.2,40.9c-0.6,1-1.3,1.7-2.3,2.2c-0.9,0.5-2,0.8-3.3,0.9c-1.2,0.1-2.5,0.2-3.7,0.2h-3V30h5.2c2.2,0,4.1,0.6,5.6,1.7
		c1.5,1.1,2.2,2.9,2.2,5.4C308,38.7,307.7,40,307.2,40.9z"/>
	<path d="M331.1,53.6c1.1-1.2,2.3-2.5,3.7-3.9c1.4-1.4,2.6-2.8,3.8-4.4c1.2-1.5,2.2-3.1,3-4.8c0.8-1.6,1.2-3.4,1.2-5.1
		c0-1.9-0.3-3.6-1-4.9c-0.7-1.4-1.6-2.5-2.8-3.3c-1.2-0.9-2.6-1.5-4.1-1.9c-1.6-0.4-3.2-0.6-4.9-0.6c-1.9,0-3.7,0.2-5.5,0.7
		c-1.8,0.5-3.5,1.1-5.2,1.8l0.3,5.1c1.5-0.7,3-1.4,4.6-1.9c1.6-0.5,3.2-0.8,5-0.8c1,0,1.9,0.1,2.8,0.4c0.9,0.3,1.7,0.7,2.3,1.2
		c0.7,0.5,1.2,1.2,1.6,2c0.4,0.8,0.6,1.7,0.6,2.7c0,1.5-0.4,2.9-1.1,4.3c-0.8,1.4-1.7,2.8-2.7,4.1c-1.1,1.3-2.2,2.6-3.4,3.7
		c-1.2,1.2-2.3,2.2-3.2,3.2l-8,8.4v4.8h25.5v-4.8h-18L331.1,53.6z"/>
	<path d="M373.5,31.4c-1.1-2-2.5-3.6-4.3-4.8c-1.8-1.2-4.1-1.9-6.9-1.9c-2.8,0-5,0.6-6.9,1.9c-1.8,1.2-3.2,2.8-4.3,4.8
		c-1,1.9-1.8,4.1-2.2,6.5c-0.4,2.4-0.6,4.8-0.6,7.1c0,2.4,0.2,4.7,0.6,7.2c0.4,2.4,1.1,4.6,2.2,6.5c1.1,1.9,2.5,3.5,4.3,4.7
		c1.8,1.2,4.1,1.8,7,1.8c2.8,0,5.1-0.6,6.9-1.9c1.8-1.2,3.2-2.8,4.3-4.8c1.1-1.9,1.8-4.1,2.2-6.5c0.4-2.4,0.6-4.8,0.6-7.1
		c0-2.3-0.2-4.7-0.6-7.1C375.3,35.5,374.6,33.3,373.5,31.4z M369.9,50.1c-0.1,1.8-0.5,3.5-1,5.1c-0.5,1.6-1.3,2.8-2.3,3.9
		c-1,1-2.4,1.6-4.2,1.6c-1.8,0-3.2-0.5-4.2-1.5c-1-1-1.8-2.3-2.3-3.9c-0.5-1.6-0.8-3.3-1-5.1c-0.1-1.8-0.2-3.5-0.2-5.1
		c0-1.6,0.1-3.4,0.2-5.2c0.1-1.8,0.5-3.5,1-5c0.5-1.5,1.3-2.8,2.3-3.8c1-1,2.4-1.5,4.2-1.5c1.7,0,3.1,0.5,4.2,1.5
		c1,1,1.8,2.3,2.3,3.8c0.5,1.6,0.9,3.2,1,5.1c0.1,1.8,0.2,3.6,0.2,5.2C370.1,46.5,370,48.2,369.9,50.1z"/>
	<rect x="396.2" y="28.1" width="5.8" height="36.6"/>
	<rect x="407.9" y="28.2" width="5.3" height="5.3"/>
	<rect x="407.9" y="37.3" width="5.3" height="27.4"/>
	<path d="M429.4,61c-0.7,0-1.2-0.1-1.7-0.4c-0.4-0.2-0.8-0.6-1-1c-0.2-0.4-0.4-0.9-0.5-1.4c-0.1-0.5-0.1-1.1-0.1-1.7V41.2h6v-3.9h-6
		v-7.7l-5.4,1.8v5.9h-4.9v3.9h4.9v14.7c0,1.3,0.1,2.6,0.3,3.7c0.2,1.2,0.5,2.1,1,3c0.5,0.8,1.2,1.5,2.1,2c0.9,0.5,2,0.7,3.5,0.7
		c0.8,0,1.7-0.1,2.6-0.2c0.9-0.2,1.7-0.4,2.6-0.7l-0.3-4.1C431.3,60.8,430.4,61,429.4,61z"/>
	<path d="M458.5,50.8c0-1.9-0.2-3.8-0.6-5.5c-0.4-1.7-1.1-3.2-2-4.5c-0.9-1.3-2.1-2.3-3.5-3c-1.4-0.7-3.1-1.1-5.1-1.1
		c-1.8,0-3.5,0.4-5,1.2c-1.5,0.8-2.8,1.8-3.8,3.1c-1,1.3-1.8,2.8-2.4,4.5c-0.6,1.7-0.9,3.5-0.9,5.4c0,2.2,0.3,4.1,0.8,5.9
		c0.5,1.8,1.3,3.3,2.4,4.6c1.1,1.3,2.4,2.3,4,3c1.6,0.7,3.5,1,5.7,1c1.5,0,3-0.1,4.5-0.4c1.6-0.2,3-0.6,4.4-1.1l-0.3-4.3
		c-1.1,0.6-2.3,1.1-3.8,1.4c-1.4,0.3-2.8,0.5-4,0.5c-1.3,0-2.4-0.2-3.5-0.7c-1-0.5-1.9-1.1-2.6-1.9c-0.7-0.8-1.3-1.8-1.6-2.9
		c-0.4-1.1-0.6-2.3-0.6-3.6h17.7V50.8z M440.7,49c0-0.9,0.1-1.8,0.4-2.8c0.3-1,0.7-1.9,1.2-2.8c0.5-0.9,1.2-1.6,2.1-2.1
		c0.8-0.5,1.8-0.8,3-0.8s2.1,0.3,2.8,0.8c0.8,0.5,1.4,1.2,1.8,2c0.5,0.8,0.8,1.7,1,2.7c0.2,1,0.3,2,0.3,3H440.7z"/>
</g>
</svg>
