<?xml version="1.0" encoding="utf-8"?>
<!-- Generator: Adobe Illustrator 22.0.0, SVG Export Plug-In . SVG Version: 6.00 Build 0)  -->
<svg version="1.1" id="Layer_1" xmlns="http://www.w3.org/2000/svg" xmlns:xlink="http://www.w3.org/1999/xlink" x="0px" y="0px"
	 viewBox="0 0 425.2 141.7" style="enable-background:new 0 0 425.2 141.7;" xml:space="preserve">
<style type="text/css">
	.st0{fill:#121617;}
	.st1{fill:#EA1F26;}
	.st2{fill:#FFFFFF;}
	.st3{fill:#231F20;}
</style>
<g>
	<g>
		<path class="st0" d="M258.9,26.5h9.6c4.7,0,8.2,1,10.7,2.9s3.7,4.7,3.7,8.3c0,2.5-0.6,4.7-1.7,6.6c-1.2,1.9-2.8,3.4-4.9,4.4
			c-2.1,1-4.5,1.5-7.1,1.5c-1.7,0-3.5-0.2-5.3-0.6v15.1h-5V26.5z M275.4,44c1.6-1.5,2.5-3.5,2.5-6.1c0-2.6-0.8-4.5-2.4-5.6
			c-1.6-1.2-4-1.7-7-1.7h-4.5v15.3c1.7,0.3,3.1,0.4,4.3,0.4C271.4,46.2,273.7,45.5,275.4,44z"/>
		<path class="st0" d="M286.9,61.2l4.1-3.7c3.9-3.6,6.7-6.4,8.7-8.5c1.9-2,3.4-4,4.4-5.9c1-1.9,1.6-3.9,1.6-5.9c0-2.4-0.7-4.2-2-5.4
			c-1.4-1.2-3.1-1.8-5.3-1.8c-1.7,0-3.4,0.4-4.8,1.1c-1.5,0.7-2.9,1.8-4.3,3.2l-1.9-3.7c1.4-1.4,3.1-2.6,5-3.4
			c2-0.8,4.1-1.3,6.5-1.3c2.1,0,4.1,0.4,5.9,1.3c1.8,0.8,3.2,2.1,4.3,3.8c1.1,1.7,1.6,3.7,1.6,6c0,2.3-0.6,4.5-1.8,6.7
			c-1.2,2.2-2.8,4.3-4.9,6.5c-2,2.2-4.9,4.9-8.5,8.3l-2.3,2.1l19.1,0l-0.5,4.2h-24.8V61.2z"/>
		<path class="st0" d="M318.8,60.4c-2.1-3.3-3.1-8.1-3.1-14.4c0-6.4,1.1-11.3,3.2-14.8c2.2-3.5,5.4-5.2,9.7-5.2
			c4.2,0,7.4,1.6,9.4,4.9c2.1,3.3,3.1,8.1,3.1,14.4c0,6.4-1.1,11.3-3.2,14.8c-2.2,3.5-5.4,5.2-9.8,5.2
			C324,65.3,320.9,63.7,318.8,60.4z M334.3,57.3c1.3-2.7,1.9-6.7,1.9-11.8c0-4.9-0.6-8.8-1.8-11.5c-1.2-2.7-3.2-4.1-5.9-4.1
			c-5.2,0-7.8,5.4-7.8,16.1c0,5,0.6,8.8,1.8,11.4c1.2,2.6,3.1,4,5.8,4C331.1,61.4,333.1,60,334.3,57.3z"/>
	</g>
	<g>
		<path class="st1" d="M392.5,117.6c17.2,0,31.1-13.9,31.1-31.1c0-17.2-13.9-31.1-31.1-31.1c-17.2,0-31.1,13.9-31.1,31.1
			C361.4,103.7,375.3,117.6,392.5,117.6"/>
		<path class="st2" d="M383.3,72.6c-5.9-0.2-7.5,8.1-7.8,9.5c0,0.1-0.1,0.1-0.1,0.1c-1.8-0.2-2.8-0.6-2.8-0.6l-0.4,1.2
			c1.2,0.6,3,0.8,3,0.8c-0.4,2.2-2.1,6.5-2.1,6.5s-1.6-0.5-3.6-0.5c-2.6,0-3.5,1.2-3.6,2c-0.2,2,2.4,2.9,4.1,2.9
			c3.4,0,5.2-1.9,5.2-1.9s9.6,3.6,19.6,3.6c13.1,0,24.2-3.5,24.2-3.5l-0.3-1.2c0,0-8,2.8-23.4,2.6c-10.6-0.1-18.7-3.2-18.7-3.2
			s0.3-0.5,0.5-0.9c1.1-2.2,2.3-6.5,2.3-6.5s7.3-2,7.3-7.8C386.7,73.9,384.9,72.7,383.3,72.6 M383.5,74.2c1.1,0,1.5,0.9,1.4,1.7
			c-0.5,4.8-5.4,6-5.4,6S380.8,74.2,383.5,74.2 M395.2,78.2c-1.2,0-2.1,0.5-2.1,1.6c0,1.2,1,1.4,2.1,1.4c1.1,0,2.1-0.5,2.1-1.6
			C397.3,78.5,396.1,78.2,395.2,78.2 M411.5,82.4c-3.5,0-5.4,3-5.5,4.8c0,0.4-0.1,0.4-0.1,0.4c-0.1,0.1-1.3,1.5-2.8,1.5
			c-1.2,0-1.4-1-1.4-1.6c0-0.7,0.6-3.5,2.3-3.5c0.9,0,1.4,0.8,1.4,0.8l0.5-1.6c0,0-0.8-0.6-2.3-0.6c-3.4,0-5.7,2.5-5.8,4.8
			c0,0.3-0.1,0.5-0.1,0.5c-0.1,0.1-0.9,1.1-2,1.1c-0.7,0-0.8-0.6-0.8-0.8c0-0.3,1.4-5.4,1.4-5.4l-3.8,0.1l-1.3,4.9
			c0,0-2.1,1.5-5.1,1.7c-1.5,0.1-2.1-0.8-2.1-1.4v-0.2c0,0,0.6,0.1,1.1,0.1c0.4,0,4.9-0.3,4.9-3.1c0-1.6-1.6-2.1-3.6-2.1
			c-3.7,0-6.2,2.2-6.2,4.9c0,2.5,2.1,3.5,4.8,3.5c3.1,0,6.1-1.9,6.1-1.9s0.2,1.9,2.6,1.9c2.5,0,4.5-1.9,4.5-1.9s1.1,1.8,3.6,1.8
			c2.5,0,4.5-2.1,4.5-2.1s0.7,1.9,3.2,1.9c2,0,3-1.2,3-1.2s0.5,1.2,2.3,1.2c2.1,0,3.6-1.4,3.6-1.4l-0.3-1.2c0,0-0.8,0.6-1.4,0.6
			c-0.4,0-0.7-0.4-0.7-0.8c0-0.9,1.4-5.4,1.4-5.4l-3.5,0.1l-0.1,0.6C413.8,83.4,413.3,82.4,411.5,82.4 M386.6,83.8
			c0.5,0,0.9,0.4,0.9,0.8c-0.1,2.4-3.1,2.1-3.1,2.1S384.9,83.7,386.6,83.8 M412.2,83.9c0.7,0,1.1,0.6,1.1,1c0,0.1-0.4,4.3-2.5,4.3
			c-0.9,0-1-1.1-1-1.4C409.8,87,410.4,83.9,412.2,83.9 M368.8,91.1c0.2,0,0.3,0,0.5,0c1.5,0.1,2.8,0.6,2.8,0.6s-1.5,1.2-2.8,1.2
			c-1,0-1.6-0.6-1.6-1C367.7,91.4,368.2,91.1,368.8,91.1"/>
	</g>
	<g>
		<g>
			<g>
				<path class="st3" d="M200.6,93.6c-0.5,0.3-1,0.4-1.6,0.4c-2,0-3.3-1.6-3.3-4.1c0-2.4,1.3-4.1,3.2-4.1c0.6,0,1.2,0.1,1.6,0.4
					l0.1,0l0.1-1l0,0c-0.5-0.2-1.1-0.4-1.7-0.4c-2.3,0-4,2.1-4,5c0,3.1,1.6,5,4.1,5c0.6,0,1.2-0.1,1.7-0.3l0,0L200.6,93.6
					L200.6,93.6z"/>
				<path class="st3" d="M208.1,84.9c-2.4,0-3.4,2.5-3.4,5c0,2.2,0.7,3.9,1.9,4.6c0.4,0.3,1,0.4,1.5,0.4c2.4,0,3.4-2.5,3.4-5
					C211.5,87.4,210.6,84.9,208.1,84.9 M208.1,85.8c1.9,0,2.6,2.2,2.6,4.1c0,1.9-0.7,4.1-2.6,4.1c-1,0-1.6-0.7-2-1.3
					c-0.4-0.8-0.6-1.8-0.6-2.8C205.5,87.8,206.3,85.8,208.1,85.8"/>
				<path class="st3" d="M218.5,89.6c0.9-0.4,1.4-1.2,1.4-2.3c0-1.8-1.3-2.5-2.4-2.5c-0.5,0-1.2,0.2-1.8,0.4l0,0l0.1,0.9l0.1,0
					c0.4-0.2,1-0.5,1.5-0.5c0.8,0,1.7,0.4,1.7,1.6c0,1.6-1.2,2-1.9,2c-0.1,0-0.3,0-0.4,0l-0.1,0v0.9l0.1,0c0.1,0,0.3,0,0.5,0
					c1.3,0,2,0.6,2,1.9c0,1.5-1.1,2-2,2c-0.5,0-1.1-0.1-1.6-0.5l-0.1-0.1l-0.1,1l0,0c0.4,0.2,1,0.4,1.7,0.4c1.8,0,2.9-1.1,2.9-2.8
					C220,90.8,219.4,89.8,218.5,89.6"/>
				<path class="st3" d="M230.1,85h-4.5v2.9c0,2.6-0.4,4.6-1.2,6h-0.7v3.4h0.7v-2.5h6v2.5h0.7v-3.4h-1V85z M229.4,85.9v8h-4.1
					c0.7-1.4,1.1-3.3,1.1-5.5v-2.6H229.4z"/>
				<path class="st3" d="M237.5,85l-3.1,9.7l0,0.1h0.8l0.9-2.7h3.9l0.8,2.6l0,0h0.8l-3.2-9.7H237.5z M239.5,91.2h-3.3l1.7-5.2
					L239.5,91.2z"/>
				<polygon class="st3" points="250.1,89.3 246.2,89.3 246.2,85 245.4,85 245.4,94.7 246.2,94.7 246.2,90.2 250.1,90.2 250.1,94.7 
					250.9,94.7 250.9,85 250.1,85 				"/>
				<path class="st3" d="M258.8,84.9c-2.4,0-3.4,2.5-3.4,5c0,2.2,0.7,3.9,1.9,4.6c0.4,0.3,1,0.4,1.6,0.4c2.4,0,3.4-2.5,3.4-5
					C262.2,87.4,261.3,84.9,258.8,84.9 M258.8,85.8c1.9,0,2.6,2.2,2.6,4.1c0,1.9-0.7,4.1-2.6,4.1c-1,0-1.6-0.7-2-1.3
					c-0.4-0.8-0.6-1.8-0.6-2.8C256.2,87.8,257,85.8,258.8,85.8"/>
				<path class="st3" d="M275.8,89.6c0.9-0.3,1.3-1.1,1.3-2.2c0-2.1-1.6-2.4-2.5-2.4h-1.8v9.7h1.5c1.4,0,3-0.5,3-2.8
					C277.4,90.8,276.7,89.9,275.8,89.6 M274.5,89.2h-0.8v-3.4h1c0.6,0,1.6,0.2,1.6,1.6C276.3,88.9,275.3,89.2,274.5,89.2
					 M273.6,90.1h0.6c1.5,0,2.3,0.6,2.3,1.9c0,1.2-0.7,1.9-2.1,1.9h-0.8V90.1z"/>
				<polygon class="st3" points="285.9,93.6 283.1,85 283.1,85 281.9,85 281.9,94.7 282.7,94.7 282.7,86.1 285.5,94.7 285.5,94.7 
					286.3,94.7 289.1,86.1 289.1,94.7 289.8,94.7 289.8,85 288.7,85 				"/>
				<polygon class="st3" points="295.6,90.2 298.4,90.2 298.4,89.3 295.6,89.3 295.6,85.9 298.6,85.9 298.6,85 294.8,85 294.8,94.7 
					298.7,94.7 298.7,93.9 295.6,93.9 				"/>
				<path class="st3" d="M308.5,93.6c-0.5,0.3-1,0.4-1.6,0.4c-2,0-3.3-1.6-3.3-4.1c0-2.4,1.3-4.1,3.2-4.1c0.6,0,1.2,0.1,1.6,0.4
					l0.1,0l0.1-1l0,0c-0.5-0.2-1.1-0.4-1.7-0.4c-2.3,0-4.1,2.1-4.1,5c0,3.1,1.6,5,4.1,5c0.6,0,1.2-0.1,1.7-0.3l0,0L308.5,93.6
					L308.5,93.6z"/>
				<polygon class="st3" points="312,85.9 314.3,85.9 314.3,94.7 315.1,94.7 315.1,85.9 317.3,85.9 317.3,85 312,85 				"/>
				<polygon class="st3" points="322.2,90.2 325,90.2 325,89.3 322.2,89.3 322.2,85.9 325.1,85.9 325.1,85 321.4,85 321.4,94.7 
					325.3,94.7 325.3,93.9 322.2,93.9 				"/>
				<path class="st3" d="M341.2,93.6L341.2,93.6c-0.6,0.3-1.1,0.4-1.7,0.4c-2,0-3.3-1.6-3.3-4.1c0-2.4,1.3-4.1,3.2-4.1
					c0.6,0,1.2,0.2,1.6,0.4l0.1,0l0.1-1l0,0c-0.5-0.3-1.1-0.4-1.7-0.4c-2.3,0-4.1,2.1-4.1,5c0,3.1,1.6,5,4.1,5
					c0.6,0,1.2-0.1,1.7-0.4l0,0L341.2,93.6z"/>
			</g>
		</g>
	</g>
	<g>
		<polygon class="st0" points="27.6,42.1 10,42.1 10,26.6 2.2,26.6 2.2,65 10,65 10,49.4 27.6,49.4 27.6,65 35.4,65 35.4,26.6 
			27.6,26.6 		"/>
		<path class="st0" d="M71.5,48.6c0,6.2-3.1,9.6-8.7,9.6c-5.7,0-8.8-3.4-8.8-9.8V26.7h-7.8v21.9c0,10.8,6,17,16.5,17
			c10.6,0,16.6-6.3,16.6-17.3V26.6h-7.8V48.6z"/>
		<polygon class="st0" points="161.5,53 152.8,26.6 146.4,26.6 137.7,53 129.2,26.7 120.9,26.7 134.3,65 140.8,65 149.5,39.8 
			158.2,65 164.7,65 178.1,26.7 170,26.7 		"/>
		<polygon class="st0" points="192,48.5 206.2,48.5 206.2,41.5 192,41.5 192,33.7 212.6,33.7 212.6,26.7 184.4,26.7 184.4,65 
			213.3,65 213.3,58 192,58 		"/>
		<rect x="222.6" y="26.6" class="st0" width="7.7" height="38.3"/>
		<path class="st0" d="M112.2,57l3.4,8h8.2l-16.8-38.1l-0.2-0.2h-6.8L83.2,65h7.9l3.3-7.4h0l0.2-0.6H112.2z M103.4,36.4l5.6,12.8h0
			l0.4,0.9H97.6l0.4-0.9h0L103.4,36.4z"/>
	</g>
</g>
</svg>
