<?xml version="1.0" encoding="utf-8"?>
<!-- Generator: Adobe Illustrator 22.0.0, SVG Export Plug-In . SVG Version: 6.00 Build 0)  -->
<svg version="1.1" id="Layer_1" xmlns="http://www.w3.org/2000/svg" xmlns:xlink="http://www.w3.org/1999/xlink" x="0px" y="0px"
	 viewBox="0 0 516.3 141.7" style="enable-background:new 0 0 516.3 141.7;" xml:space="preserve">
<style type="text/css">
	.st0{fill:#EA1F26;}
	.st1{fill:#FFFFFF;}
</style>
<g>
	<g>
		<path class="st0" d="M481.9,129.6c17.2,0,31.1-13.9,31.1-31.1c0-17.2-13.9-31.1-31.1-31.1c-17.2,0-31.1,13.9-31.1,31.1
			C450.9,115.7,464.8,129.6,481.9,129.6"/>
		<path class="st1" d="M472.7,84.6c-5.9-0.2-7.4,8.1-7.8,9.5c0,0.1-0.1,0.1-0.1,0.1c-1.8-0.2-2.8-0.6-2.8-0.6l-0.4,1.2
			c1.2,0.6,3,0.8,3,0.8c-0.4,2.2-2.1,6.4-2.1,6.4s-1.6-0.5-3.6-0.5c-2.6,0-3.5,1.2-3.6,2c-0.2,2,2.4,2.9,4.1,2.9
			c3.4,0,5.2-1.8,5.2-1.8s9.6,3.6,19.6,3.6c13.1,0,24.2-3.5,24.2-3.5l-0.3-1.2c0,0-8,2.8-23.4,2.6c-10.6-0.1-18.7-3.2-18.7-3.2
			s0.3-0.5,0.5-0.9c1.1-2.2,2.3-6.5,2.3-6.5s7.3-2,7.3-7.8C476.2,85.9,474.4,84.7,472.7,84.6 M473,86.3c1.1,0,1.5,0.9,1.4,1.7
			c-0.5,4.8-5.3,6-5.3,6S470.3,86.3,473,86.3 M484.6,90.3c-1.2,0-2.1,0.5-2.1,1.6c0,1.2,1,1.4,2.1,1.4c1.1,0,2.1-0.5,2.1-1.6
			C486.8,90.5,485.5,90.3,484.6,90.3 M500.9,94.4c-3.5,0-5.4,3-5.5,4.8c0,0.4-0.1,0.4-0.1,0.4c-0.1,0.1-1.3,1.5-2.8,1.5
			c-1.2,0-1.4-1-1.4-1.6c0-0.7,0.6-3.5,2.3-3.5c0.9,0,1.4,0.8,1.4,0.8l0.5-1.6c0,0-0.8-0.6-2.3-0.6c-3.4,0-5.7,2.5-5.8,4.8
			c0,0.3-0.1,0.5-0.1,0.5c-0.1,0.1-0.9,1.1-2,1.1c-0.7,0-0.8-0.6-0.8-0.8c0-0.3,1.4-5.3,1.4-5.3l-3.8,0.1l-1.3,4.9
			c0,0-2.1,1.5-5.1,1.7c-1.5,0.1-2.1-0.8-2.1-1.4v-0.2c0,0,0.6,0.1,1.1,0.1c0.4,0,4.9-0.3,4.9-3.1c0-1.6-1.6-2.1-3.6-2.1
			c-3.7,0-6.2,2.2-6.2,4.9c0,2.5,2.1,3.5,4.8,3.5c3.1,0,6.1-1.8,6.1-1.8s0.2,1.8,2.6,1.8c2.5,0,4.5-1.8,4.5-1.8s1.1,1.8,3.6,1.8
			c2.5,0,4.5-2.1,4.5-2.1s0.7,1.9,3.2,1.9c2,0,3-1.2,3-1.2s0.5,1.2,2.3,1.2c2.1,0,3.6-1.4,3.6-1.4l-0.3-1.2c0,0-0.8,0.6-1.4,0.6
			c-0.4,0-0.7-0.4-0.7-0.8c0-0.9,1.4-5.3,1.4-5.3l-3.5,0.1l-0.1,0.5C503.2,95.4,502.7,94.4,500.9,94.4 M476.1,95.8
			c0.5,0,0.9,0.4,0.9,0.8c-0.1,2.4-3.1,2.1-3.1,2.1S474.3,95.7,476.1,95.8 M501.6,95.9c0.7,0,1.1,0.6,1.1,1c0,0.1-0.4,4.2-2.5,4.2
			c-0.9,0-1-1.1-1-1.4C499.2,99,499.9,95.9,501.6,95.9 M458.3,103.1c0.2,0,0.3,0,0.5,0c1.5,0.1,2.8,0.6,2.8,0.6s-1.5,1.2-2.8,1.2
			c-1,0-1.6-0.6-1.6-1C457.2,103.4,457.7,103.1,458.3,103.1"/>
	</g>
	<g>
		<g>
			<g>
				<path d="M290.4,105.6c-0.5,0.3-1,0.4-1.6,0.4c-2,0-3.3-1.6-3.3-4.1c0-2.4,1.3-4.1,3.2-4.1c0.6,0,1.2,0.1,1.6,0.4l0.1,0l0.1-1
					l0,0c-0.5-0.2-1.1-0.4-1.7-0.4c-2.3,0-4,2.1-4,5c0,3,1.6,5,4.1,5c0.6,0,1.2-0.1,1.7-0.3l0,0L290.4,105.6L290.4,105.6z"/>
				<path d="M297.9,96.9c-2.4,0-3.4,2.5-3.4,5c0,2.2,0.7,3.9,1.9,4.6c0.4,0.3,1,0.4,1.5,0.4c2.4,0,3.4-2.5,3.4-5
					C301.3,99.5,300.4,96.9,297.9,96.9 M297.9,97.8c1.9,0,2.6,2.2,2.6,4.1c0,1.9-0.7,4.1-2.6,4.1c-1,0-1.6-0.7-2-1.3
					c-0.4-0.8-0.6-1.8-0.6-2.8C295.3,99.8,296.1,97.8,297.9,97.8"/>
				<path d="M308.2,101.6c0.9-0.4,1.4-1.2,1.4-2.3c0-1.8-1.3-2.5-2.4-2.5c-0.5,0-1.2,0.2-1.8,0.4l0,0l0.1,0.9l0.1,0
					c0.4-0.2,1-0.5,1.5-0.5c0.8,0,1.7,0.4,1.7,1.6c0,1.6-1.2,2-1.9,2c-0.1,0-0.3,0-0.4,0l-0.1,0v0.9l0.1,0c0.1,0,0.3,0,0.5,0
					c1.3,0,2,0.6,2,1.9c0,1.5-1.1,2-2,2c-0.5,0-1.1-0.1-1.6-0.5l-0.1-0.1l-0.1,1l0,0c0.4,0.2,1,0.4,1.7,0.4c1.8,0,2.9-1.1,2.9-2.8
					C309.8,102.8,309.2,101.8,308.2,101.6"/>
				<path d="M319.9,97h-4.5v2.9c0,2.6-0.4,4.6-1.2,6h-0.7v3.4h0.7v-2.5h6v2.5h0.7v-3.4h-1V97z M319.1,97.9v8h-4.1
					c0.7-1.4,1.1-3.3,1.1-5.4v-2.6H319.1z"/>
				<path d="M327.2,97l-3.1,9.7l0,0.1h0.8l0.9-2.7h3.8l0.8,2.6l0,0h0.8L328,97H327.2z M329.3,103.2H326l1.7-5.2L329.3,103.2z"/>
				<polygon points="339.8,101.3 335.9,101.3 335.9,97 335.1,97 335.1,106.7 335.9,106.7 335.9,102.2 339.8,102.2 339.8,106.7 
					340.6,106.7 340.6,97 339.8,97 				"/>
				<path d="M348.5,96.9c-2.4,0-3.4,2.5-3.4,5c0,2.2,0.7,3.9,1.9,4.6c0.4,0.3,1,0.4,1.5,0.4c2.4,0,3.4-2.5,3.4-5
					C351.9,99.5,351,96.9,348.5,96.9 M348.5,97.8c1.9,0,2.6,2.2,2.6,4.1c0,1.9-0.7,4.1-2.6,4.1c-1,0-1.6-0.7-2-1.3
					c-0.4-0.8-0.6-1.8-0.6-2.8C345.9,99.8,346.7,97.8,348.5,97.8"/>
				<path d="M365.5,101.6c0.9-0.3,1.3-1.1,1.3-2.2c0-2.1-1.6-2.4-2.5-2.4h-1.8v9.7h1.5c1.4,0,3-0.5,3-2.8
					C367,102.8,366.4,101.9,365.5,101.6 M364.1,101.3h-0.8v-3.4h1c0.6,0,1.6,0.2,1.6,1.6C366,100.9,365,101.3,364.1,101.3
					 M363.3,102.1h0.6c1.5,0,2.3,0.6,2.3,1.9c0,1.2-0.7,1.8-2.1,1.8h-0.8V102.1z"/>
				<polygon points="375.6,105.6 372.8,97 372.8,97 371.6,97 371.6,106.7 372.4,106.7 372.4,98.2 375.1,106.7 375.1,106.7 
					375.9,106.7 378.7,98.2 378.7,106.7 379.5,106.7 379.5,97 378.3,97 				"/>
				<polygon points="385.2,102.2 388,102.2 388,101.3 385.2,101.3 385.2,97.9 388.2,97.9 388.2,97 384.4,97 384.4,106.7 
					388.3,106.7 388.3,105.9 385.2,105.9 				"/>
				<path d="M398.1,105.6c-0.5,0.3-1,0.4-1.6,0.4c-2,0-3.3-1.6-3.3-4.1c0-2.4,1.3-4.1,3.2-4.1c0.6,0,1.2,0.1,1.6,0.4l0.1,0l0.1-1
					l0,0c-0.5-0.2-1.1-0.4-1.7-0.4c-2.3,0-4,2.1-4,5c0,3,1.6,5,4.1,5c0.6,0,1.2-0.1,1.7-0.3l0,0L398.1,105.6L398.1,105.6z"/>
				<polygon points="401.6,97.9 403.9,97.9 403.9,106.7 404.7,106.7 404.7,97.9 406.9,97.9 406.9,97 401.6,97 				"/>
				<polygon points="411.7,102.2 414.6,102.2 414.6,101.3 411.7,101.3 411.7,97.9 414.7,97.9 414.7,97 411,97 411,106.7 
					414.8,106.7 414.8,105.9 411.7,105.9 				"/>
				<path d="M430.7,105.6L430.7,105.6c-0.6,0.3-1.1,0.4-1.7,0.4c-2,0-3.3-1.6-3.3-4.1c0-2.4,1.3-4.1,3.2-4.1c0.6,0,1.2,0.2,1.6,0.4
					l0.1,0l0.1-1l0,0c-0.5-0.3-1.1-0.4-1.7-0.4c-2.3,0-4,2.1-4,5c0,3,1.6,5,4.1,5c0.6,0,1.2-0.1,1.7-0.4l0,0L430.7,105.6z"/>
			</g>
		</g>
	</g>
	<g>
		<polygon points="27.9,54.2 10.3,54.2 10.3,38.8 2.5,38.8 2.5,77.1 10.3,77.1 10.3,61.5 27.9,61.5 27.9,77.1 35.6,77.1 35.6,38.8 
			27.9,38.8 		"/>
		<path d="M71.6,60.7c0,6.2-3.1,9.6-8.7,9.6c-5.6,0-8.8-3.4-8.8-9.8V38.8h-7.8v21.9c0,10.8,6,17,16.4,17c10.5,0,16.6-6.3,16.6-17.3
			V38.8h-7.8V60.7z"/>
		<polygon points="161.5,65.1 152.8,38.8 146.4,38.8 137.7,65.1 129.3,38.8 121,38.8 134.4,77.1 140.8,77.1 149.5,51.9 158.2,77.1 
			164.7,77.1 178,38.8 170,38.8 		"/>
		<polygon points="192,60.6 206.1,60.6 206.1,53.6 192,53.6 192,45.8 212.5,45.8 212.5,38.8 184.3,38.8 184.3,77.1 213.2,77.1 
			213.2,70.1 192,70.1 		"/>
		<rect x="222.5" y="38.8" width="7.7" height="38.3"/>
		<path d="M112.3,69.1l3.4,8h8.1L107.2,39l-0.2-0.2h-6.8L83.4,77.1h7.9l3.3-7.4h0l0.2-0.6H112.3z M103.5,48.5l5.5,12.8h0l0.4,0.9
			H97.7l0.4-0.9h0L103.5,48.5z"/>
	</g>
	<path d="M258.7,38.7h9.6c4.6,0,8.2,1,10.6,2.9c2.4,1.9,3.7,4.7,3.7,8.3c0,2.5-0.6,4.7-1.7,6.6c-1.2,1.9-2.8,3.4-4.8,4.4
		c-2.1,1-4.4,1.5-7.1,1.5c-1.7,0-3.5-0.2-5.2-0.6v15.1h-5V38.7z M275.2,56.1c1.6-1.5,2.5-3.5,2.5-6.1c0-2.6-0.8-4.5-2.4-5.6
		c-1.6-1.2-3.9-1.7-7-1.7h-4.5v15.2c1.7,0.3,3.1,0.4,4.3,0.4C271.1,58.3,273.5,57.6,275.2,56.1z M286.7,73.3l4.1-3.7
		c3.9-3.6,6.7-6.4,8.7-8.4c1.9-2,3.4-4,4.4-5.9s1.6-3.9,1.6-5.9c0-2.4-0.7-4.2-2-5.4c-1.4-1.2-3.1-1.8-5.2-1.8
		c-1.7,0-3.4,0.4-4.8,1.1c-1.5,0.7-2.9,1.8-4.3,3.2l-1.9-3.7c1.4-1.4,3.1-2.6,5-3.4c2-0.8,4.1-1.3,6.5-1.3c2.1,0,4.1,0.4,5.9,1.3
		c1.8,0.8,3.2,2.1,4.3,3.7c1.1,1.7,1.6,3.7,1.6,6c0,2.3-0.6,4.5-1.8,6.7c-1.2,2.2-2.8,4.3-4.9,6.5c-2,2.2-4.9,4.9-8.5,8.3l-2.3,2.1
		l19,0l-0.5,4.2h-24.8V73.3z M318.5,72.4c-2.1-3.3-3.1-8.1-3.1-14.3c0-6.4,1.1-11.3,3.2-14.8c2.2-3.5,5.4-5.2,9.7-5.2
		c4.2,0,7.3,1.6,9.4,4.9c2.1,3.3,3.1,8.1,3.1,14.3c0,6.4-1.1,11.3-3.2,14.8c-2.1,3.5-5.4,5.2-9.8,5.2
		C323.7,77.4,320.6,75.7,318.5,72.4z M334,69.4c1.3-2.7,1.9-6.6,1.9-11.8c0-4.9-0.6-8.7-1.8-11.4c-1.2-2.7-3.1-4.1-5.9-4.1
		c-5.2,0-7.8,5.3-7.8,16c0,5,0.6,8.8,1.8,11.4c1.2,2.6,3.1,3.9,5.8,3.9C330.7,73.4,332.7,72.1,334,69.4z M361.1,38.7h9.6
		c4.7,0,8.2,1,10.7,2.9c2.5,1.9,3.7,4.7,3.7,8.3c0,2.5-0.6,4.7-1.7,6.6c-1.2,1.9-2.8,3.4-4.9,4.4c-2.1,1-4.5,1.5-7.1,1.5
		c-1.7,0-3.5-0.2-5.3-0.6v15.2h-5V38.7z M377.7,56.3c1.6-1.5,2.5-3.5,2.5-6.2c0-2.6-0.8-4.5-2.4-5.6c-1.6-1.2-4-1.7-7-1.7h-4.6V58
		c1.7,0.3,3.1,0.5,4.3,0.5C373.6,58.5,376,57.7,377.7,56.3z M389.8,55.8c0-1.6-0.1-4-0.2-7.1h4.5c0.1,0.8,0.2,1.8,0.3,2.9
		c0.1,1.1,0.1,2,0.2,2.7c0.8-1.3,1.5-2.3,2.3-3.2c0.7-0.9,1.6-1.6,2.6-2.1c1-0.5,2.2-0.8,3.4-0.8c1,0,1.8,0.1,2.6,0.3l-0.7,4.3
		c-0.7-0.2-1.4-0.3-2.1-0.3c-1.6,0-3,0.4-4.2,1.3c-1.2,0.9-2.5,2.3-3.9,4.3v18.9h-4.9V55.8z M411.9,75.9c-2-1.1-3.5-2.8-4.7-5
		c-1.1-2.2-1.7-4.8-1.7-7.8c0-3,0.6-5.7,1.7-8c1.1-2.3,2.7-4,4.7-5.2c2-1.2,4.3-1.8,7-1.8c2.6,0,4.9,0.6,6.9,1.8
		c2,1.2,3.5,2.9,4.7,5.2c1.1,2.2,1.7,4.8,1.7,7.8c0,3.1-0.6,5.7-1.7,7.9c-1.2,2.2-2.7,3.9-4.8,5.1c-2,1.2-4.3,1.7-6.9,1.7
		C416.2,77.6,413.9,77,411.9,75.9z M425.1,70.9c1.3-1.9,2-4.4,2-7.7c0-3.4-0.7-6.2-2.1-8.2c-1.4-2-3.5-3-6.2-3c-2.7,0-4.8,1-6.1,3
		c-1.4,2-2,4.6-2,7.9c0,2.3,0.3,4.2,1,5.8c0.7,1.6,1.6,2.9,2.9,3.7c1.3,0.9,2.8,1.3,4.6,1.3C421.8,73.7,423.8,72.8,425.1,70.9z
		 M258.7,38.7h9.6c4.6,0,8.2,1,10.6,2.9c2.4,1.9,3.7,4.7,3.7,8.3c0,2.5-0.6,4.7-1.7,6.6c-1.2,1.9-2.8,3.4-4.8,4.4
		c-2.1,1-4.4,1.5-7.1,1.5c-1.7,0-3.5-0.2-5.2-0.6v15.1h-5V38.7z M275.2,56.1c1.6-1.5,2.5-3.5,2.5-6.1c0-2.6-0.8-4.5-2.4-5.6
		c-1.6-1.2-3.9-1.7-7-1.7h-4.5v15.2c1.7,0.3,3.1,0.4,4.3,0.4C271.1,58.3,273.5,57.6,275.2,56.1z M286.7,73.3l4.1-3.7
		c3.9-3.6,6.7-6.4,8.7-8.4c1.9-2,3.4-4,4.4-5.9s1.6-3.9,1.6-5.9c0-2.4-0.7-4.2-2-5.4c-1.4-1.2-3.1-1.8-5.2-1.8
		c-1.7,0-3.4,0.4-4.8,1.1c-1.5,0.7-2.9,1.8-4.3,3.2l-1.9-3.7c1.4-1.4,3.1-2.6,5-3.4c2-0.8,4.1-1.3,6.5-1.3c2.1,0,4.1,0.4,5.9,1.3
		c1.8,0.8,3.2,2.1,4.3,3.7c1.1,1.7,1.6,3.7,1.6,6c0,2.3-0.6,4.5-1.8,6.7c-1.2,2.2-2.8,4.3-4.9,6.5c-2,2.2-4.9,4.9-8.5,8.3l-2.3,2.1
		l19,0l-0.5,4.2h-24.8V73.3z M318.5,72.4c-2.1-3.3-3.1-8.1-3.1-14.3c0-6.4,1.1-11.3,3.2-14.8c2.2-3.5,5.4-5.2,9.7-5.2
		c4.2,0,7.3,1.6,9.4,4.9c2.1,3.3,3.1,8.1,3.1,14.3c0,6.4-1.1,11.3-3.2,14.8c-2.1,3.5-5.4,5.2-9.8,5.2
		C323.7,77.4,320.6,75.7,318.5,72.4z M334,69.4c1.3-2.7,1.9-6.6,1.9-11.8c0-4.9-0.6-8.7-1.8-11.4c-1.2-2.7-3.1-4.1-5.9-4.1
		c-5.2,0-7.8,5.3-7.8,16c0,5,0.6,8.8,1.8,11.4c1.2,2.6,3.1,3.9,5.8,3.9C330.7,73.4,332.7,72.1,334,69.4z M361.1,38.7h9.6
		c4.7,0,8.2,1,10.7,2.9c2.5,1.9,3.7,4.7,3.7,8.3c0,2.5-0.6,4.7-1.7,6.6c-1.2,1.9-2.8,3.4-4.9,4.4c-2.1,1-4.5,1.5-7.1,1.5
		c-1.7,0-3.5-0.2-5.3-0.6v15.2h-5V38.7z M377.7,56.3c1.6-1.5,2.5-3.5,2.5-6.2c0-2.6-0.8-4.5-2.4-5.6c-1.6-1.2-4-1.7-7-1.7h-4.6V58
		c1.7,0.3,3.1,0.5,4.3,0.5C373.6,58.5,376,57.7,377.7,56.3z M389.8,55.8c0-1.6-0.1-4-0.2-7.1h4.5c0.1,0.8,0.2,1.8,0.3,2.9
		c0.1,1.1,0.1,2,0.2,2.7c0.8-1.3,1.5-2.3,2.3-3.2c0.7-0.9,1.6-1.6,2.6-2.1c1-0.5,2.2-0.8,3.4-0.8c1,0,1.8,0.1,2.6,0.3l-0.7,4.3
		c-0.7-0.2-1.4-0.3-2.1-0.3c-1.6,0-3,0.4-4.2,1.3c-1.2,0.9-2.5,2.3-3.9,4.3v18.9h-4.9V55.8z M411.9,75.9c-2-1.1-3.5-2.8-4.7-5
		c-1.1-2.2-1.7-4.8-1.7-7.8c0-3,0.6-5.7,1.7-8c1.1-2.3,2.7-4,4.7-5.2c2-1.2,4.3-1.8,7-1.8c2.6,0,4.9,0.6,6.9,1.8
		c2,1.2,3.5,2.9,4.7,5.2c1.1,2.2,1.7,4.8,1.7,7.8c0,3.1-0.6,5.7-1.7,7.9c-1.2,2.2-2.7,3.9-4.8,5.1c-2,1.2-4.3,1.7-6.9,1.7
		C416.2,77.6,413.9,77,411.9,75.9z M425.1,70.9c1.3-1.9,2-4.4,2-7.7c0-3.4-0.7-6.2-2.1-8.2c-1.4-2-3.5-3-6.2-3c-2.7,0-4.8,1-6.1,3
		c-1.4,2-2,4.6-2,7.9c0,2.3,0.3,4.2,1,5.8c0.7,1.6,1.6,2.9,2.9,3.7c1.3,0.9,2.8,1.3,4.6,1.3C421.8,73.7,423.8,72.8,425.1,70.9z"/>
</g>
</svg>
